<?xml version="1.0" encoding="UTF-8" standalone="no"?>
<svg width="64px" height="64px" viewBox="0 0 64 64" version="1.1" xmlns="http://www.w3.org/2000/svg" xmlns:xlink="http://www.w3.org/1999/xlink">
    <title>Logo</title>
    <defs></defs>
    <g id="logo"  fill="#000000">
        <path d="M 5,-1.2999998e-7 C 2.23,-1.2999998e-7 0,2.2299999 0,4.9999999 L 0,30 6.3510742,30 A 6,6 0 0 1 12,26 a 6,6 0 0 1 5.649902,4 l 8.701173,0 A 6,6 0 0 1 30,26.3501 L 30,24 C 30,22.8537 29.998,21.8193 29.85205,20.9185 29.709682,20.0399 29.405795,19.3011 29.00586,18.8618 28.729617,18.5584 28.317762,18.3045 27.862305,18.1709 27.41163,18.0387 26.78017,18 26,18 l -25.9506836,0 0,-4 L 26,14 c 0.85135,0 1.872907,0.01 2.987792,0.3325 1.110098,0.3256 2.153998,0.9334 2.976075,1.8364 1.130431,1.2418 1.615623,2.7444 1.836913,4.1099 C 34.01845,21.622 34,22.873 34,24 l 0,2.3511 A 6,6 0 0 1 37.649903,30 l 8.701172,0 A 6,6 0 0 1 52,26 6,6 0 0 1 57.649903,30 L 64,30 64,4.9999999 C 64,2.2299999 61.77,-1.2999998e-7 59,-1.2999998e-7 l -54,0 z M 0,34 0,46 6,46 C 6.7801687,46 7.4116342,45.962 7.8623047,45.8296 8.3177628,45.696 8.729616,45.4421 9.0058595,45.1387 9.405798,44.6994 9.7096835,43.9605 9.8520508,43.082 9.99805,42.1812 10,41.1463 10,40 l 0,-2.3511 A 6,6 0 0 1 6.3500977,34 L 0,34 Z m 17.648926,0 A 6,6 0 0 1 14,37.6499 L 14,40 c 0,1.127 0.01845,2.3785 -0.199219,3.7217 -0.221292,1.3655 -0.706486,2.8681 -1.836914,4.1098 -0.822078,0.9031 -1.865976,1.5108 -2.976074,1.8365 C 7.872907,49.995 6.8513497,50 6,50 l -6,0 0,9 c 0,2.77 2.23,5 5,5 l 45,0 0,-26.3511 A 6,6 0 0 1 46.350097,34 l -8.701172,0 A 6,6 0 0 1 32,38 6,6 0 0 1 26.350097,34 l -8.701171,0 z m 39.999999,0 A 6,6 0 0 1 54,37.6499 L 54,64 l 5,0 c 2.77,0 5,-2.23 5,-5 l 0,-25 -6.351075,0 z" />
    </g>
</svg>