<?xml version="1.0" encoding="UTF-8" standalone="no"?>
<svg width="64px" height="64px" viewBox="0 0 64 64" version="1.1" xmlns="http://www.w3.org/2000/svg" xmlns:xlink="http://www.w3.org/1999/xlink">
    <title>Logo inverse</title>
    <defs></defs>
    <g id="logo-o"  fill="#000000">
        <path d="M 5 0 C 2.23 0 0 2.23 0 5 L 0 30 L 0 34 L 0 46 L 0 50 L 0 59 C 0 61.77 2.23 64 5 64 L 50 64 L 54 64 L 59 64 C 61.77 64 64 61.77 64 59 L 64 34 L 64 30 L 64 5 C 64 2.23 61.77 0 59 0 L 5 0 z M 5 2 L 59 2 C 60.662 2 62 3.338 62 5 L 62 30 L 57.650391 30 A 5.9999997 5.9999997 0 0 0 52 26 A 5.9999997 5.9999997 0 0 0 46.351562 30 L 37.650391 30 A 5.9999997 5.9999997 0 0 0 34 26.351562 L 34 24 C 34 22.873 34.018401 21.622497 33.800781 20.279297 C 33.579491 18.913797 33.095274 17.409769 31.964844 16.167969 C 31.142764 15.264969 30.098371 14.657631 28.988281 14.332031 C 27.873391 14.005031 26.85135 14 26 14 L 2 14 L 2 5 C 2 3.338 3.338 2 5 2 z M 2 18 L 26 18 C 26.78017 18 27.412601 18.039975 27.863281 18.171875 C 28.318741 18.305475 28.729619 18.557928 29.005859 18.861328 C 29.405799 19.300628 29.709203 20.039369 29.851562 20.917969 C 29.997562 21.818769 30 22.8537 30 24 L 30 26.349609 A 5.9999997 5.9999997 0 0 0 26.351562 30 L 17.650391 30 A 5.9999997 5.9999997 0 0 0 12 26 A 5.9999997 5.9999997 0 0 0 6.3515625 30 L 2 30 L 2 18 z M 2 34 L 6.3496094 34 A 5.9999997 5.9999997 0 0 0 10 37.648438 L 10 40 C 10 41.1463 9.9975125 42.181231 9.8515625 43.082031 C 9.7091925 43.960531 9.4057994 44.699272 9.0058594 45.138672 C 8.7296194 45.442072 8.3167881 45.696478 7.8613281 45.830078 C 7.4106581 45.962278 6.78017 46 6 46 L 2 46 L 2 34 z M 17.648438 34 L 26.349609 34 A 5.9999997 5.9999997 0 0 0 32 38 A 5.9999997 5.9999997 0 0 0 37.648438 34 L 46.349609 34 A 5.9999997 5.9999997 0 0 0 50 37.648438 L 50 62 L 5 62 C 3.338 62 2 60.662 2 59 L 2 50 L 6 50 C 6.85135 50 7.8733913 49.999969 8.9882812 49.667969 C 10.098381 49.342369 11.140821 48.735131 11.962891 47.832031 C 13.093331 46.590331 13.579491 45.088156 13.800781 43.722656 C 14.018451 42.379456 14 41.127 14 40 L 14 37.650391 A 5.9999997 5.9999997 0 0 0 17.648438 34 z M 57.648438 34 L 62 34 L 62 59 C 62 60.662 60.662 62 59 62 L 54 62 L 54 37.650391 A 5.9999997 5.9999997 0 0 0 57.648438 34 Z" />
    </g>
</svg>